# xmcd
#
# Track frame offsets: 
#        150
#        5900
#        26030
#        33340
#        60367
#        65660
#        89039
#        101211
#        116167
#        124071
#        128824
#        150512
#        162038
#        176267
#        186240
#        191013
#        212539
#        221313
#        248712
#        253708
#        277007
#        287834
#
# Disc length: 4166 seconds
#
# Revision: 0
# Processed by: cddbd v1.5.2PL0 Copyright (c) Steve Scherf et al.
# Submitted via: ExactAudioCopy v0.99pb4
#
DISCID=44104416
DTITLE=Hank Williams  - Mother's Best [CD14)
DYEAR=1951
DGENRE=Country
TTITLE0=Mother's Best #146
TTITLE1=Mind Your Own Business
TTITLE2=Old Joe Clark
TTITLE3=I Dreamed About Mama Last Night
TTITLE4=Mother's Best (2.22.1951)
TTITLE5=Long Gone Lonesome Blues
TTITLE6=Last Night I Heard You Cryin' In Your Sleep (Audrey)
TTITLE7=Lonely Tombs
TTITLE8=Turkey In The Straw
TTITLE9=Mother's Best #157
TTITLE10=Hey Good Lookin'
TTITLE11=Silver Bells
TTITLE12=I'm Gonna Sing, Sing, Sing
TTITLE13=Turkey in the Straw
TTITLE14=Mother's Best #158
TTITLE15=I Can't Help It
TTITLE16=Stay All Night Stay a Lil' Longer
TTITLE17=Lonely Tombs
TTITLE18=Mother's Best #156
TTITLE19=Have I Told You Lately That I Love You
TTITLE20=Sally Goodin'
TTITLE21=When The Saints Go Marchin' In
EXTD=
EXTT0=
EXTT1=
EXTT2=
EXTT3=
EXTT4=
EXTT5=
EXTT6=
EXTT7=
EXTT8=
EXTT9=
EXTT10=
EXTT11=
EXTT12=
EXTT13=
EXTT14=
EXTT15=
EXTT16=
EXTT17=
EXTT18=
EXTT19=
EXTT20=
EXTT21=
PLAYORDER=
